<?xml version="1.0" encoding="iso-8859-1"?>
<!-- Generator: Adobe Illustrator 19.0.0, SVG Export Plug-In . SVG Version: 6.00 Build 0)  -->
<svg version="1.1" id="Capa_1" xmlns="http://www.w3.org/2000/svg" xmlns:xlink="http://www.w3.org/1999/xlink" x="0px" y="0px"
	 viewBox="0 0 512 512" style="enable-background:new 0 0 512 512;" xml:space="preserve">
<g>
	<polygon style="fill:#B4E4FF;" points="439.319,239.225 255.999,512 72.679,239.225 117.161,157.466 394.837,157.466 	"/>
	<polygon style="fill:#B4E4FF;" points="255.999,158.183 317.105,239.225 317.106,239.225 394.837,157.466 117.161,157.466 
		194.892,239.225 	"/>
	<polygon style="fill:#B4E4FF;" points="317.106,239.226 317.106,239.225 317.105,239.225 	"/>
</g>
<polygon style="fill:#82D2FF;" points="194.892,239.225 317.105,239.225 255.999,158.183 "/>
<polygon style="fill:#08B7FC;" points="439.319,239.225 394.837,157.466 317.106,239.225 "/>
<polygon style="fill:#006DFF;" points="317.106,239.225 317.106,239.226 255.999,512 439.319,239.225 "/>
<polygon style="fill:#08B7FC;" points="317.105,239.225 194.892,239.225 255.999,512 317.106,239.226 "/>
<polygon style="fill:#006DFF;" points="72.679,239.225 255.999,512 194.892,239.225 "/>
<polygon style="fill:#08B7FC;" points="117.161,157.466 72.679,239.225 194.892,239.225 "/>
<rect x="240.999" style="fill:#FFDB0C;" width="30" height="82.4"/>
<rect x="255.999" style="fill:#FBBF00;" width="15" height="82.4"/>
<g>
	
		<rect x="98.179" y="49.399" transform="matrix(-0.3827 -0.9239 0.9239 -0.3827 133.2228 217.814)" style="fill:#FFDB0C;" width="82.402" height="30.001"/>
	
		<rect x="-0.681" y="115.451" transform="matrix(-0.7071 -0.7071 0.7071 -0.7071 -23.0723 251.3449)" style="fill:#FFDB0C;" width="82.399" height="30"/>
</g>
<g>
	
		<rect x="357.626" y="23.21" transform="matrix(-0.9239 -0.3827 0.3827 -0.9239 692.2377 266.519)" style="fill:#FBBF00;" width="30.001" height="82.402"/>
	
		<rect x="456.481" y="89.245" transform="matrix(-0.7071 -0.7071 0.7071 -0.7071 712.6299 556.0704)" style="fill:#FBBF00;" width="30" height="82.399"/>
</g>
<g>
</g>
<g>
</g>
<g>
</g>
<g>
</g>
<g>
</g>
<g>
</g>
<g>
</g>
<g>
</g>
<g>
</g>
<g>
</g>
<g>
</g>
<g>
</g>
<g>
</g>
<g>
</g>
<g>
</g>
</svg>
